<svg width="50" height="50" viewBox="0 0 50 50" fill="none" xmlns="http://www.w3.org/2000/svg">
<g clip-path="url(#clip0_45_2)">
<path d="M33 6H37.1667C38.2717 6 39.3315 6.43899 40.1129 7.22039C40.8943 8.00179 41.3333 9.0616 41.3333 10.1667V39.3333C41.3333 40.4384 40.8943 41.4982 40.1129 42.2796C39.3315 43.061 38.2717 43.5 37.1667 43.5H12.1667C11.0616 43.5 10.0018 43.061 9.22039 42.2796C8.43899 41.4982 8 40.4384 8 39.3333V10.1667C8 9.0616 8.43899 8.00179 9.22039 7.22039C10.0018 6.43899 11.0616 6 12.1667 6H16.3333" stroke="black" stroke-width="2" stroke-linecap="round" stroke-linejoin="round"/>
<path d="M30.5833 3H18.0833C16.9327 3 16 3.93274 16 5.08333V9.25C16 10.4006 16.9327 11.3333 18.0833 11.3333H30.5833C31.7339 11.3333 32.6667 10.4006 32.6667 9.25V5.08333C32.6667 3.93274 31.7339 3 30.5833 3Z" stroke="black" stroke-width="2" stroke-linecap="round" stroke-linejoin="round"/>
</g>
<defs>
<clipPath id="clip0_45_2">
<rect width="50" height="50" fill="white"/>
</clipPath>
</defs>
</svg>
