<svg width="50" height="50" viewBox="0 0 50 50" fill="none" xmlns="http://www.w3.org/2000/svg">
<g clip-path="url(#clip0_45_2)">
<path d="M22.9167 8.33331H8.33332C7.22825 8.33331 6.16845 8.7723 5.38704 9.5537C4.60564 10.3351 4.16666 11.3949 4.16666 12.5V41.6666C4.16666 42.7717 4.60564 43.8315 5.38704 44.6129C6.16845 45.3943 7.22825 45.8333 8.33332 45.8333H37.5C38.6051 45.8333 39.6649 45.3943 40.4463 44.6129C41.2277 43.8315 41.6667 42.7717 41.6667 41.6666V27.0833" stroke="black" stroke-width="2" stroke-linecap="round" stroke-linejoin="round"/>
<path d="M38.5417 5.20836C39.3705 4.37956 40.4946 3.91394 41.6667 3.91394C42.8388 3.91394 43.9629 4.37956 44.7917 5.20836C45.6205 6.03716 46.0861 7.16126 46.0861 8.33336C46.0861 9.50546 45.6205 10.6296 44.7917 11.4584L25 31.25L16.6667 33.3334L18.75 25L38.5417 5.20836Z" stroke="black" stroke-width="2" stroke-linecap="round" stroke-linejoin="round"/>
</g>
<defs>
<clipPath id="clip0_45_2">
<rect width="50" height="50" fill="white"/>
</clipPath>
</defs>
</svg>
